<svg width="22" height="23" viewBox="0 0 22 23" fill="none" xmlns="http://www.w3.org/2000/svg">
<path d="M11 23C9.07 23 7.5 21.43 7.5 19.5C7.5 19.224 7.724 19 8 19C8.276 19 8.5 19.224 8.5 19.5C8.5 20.878 9.621 22 11 22C12.379 22 13.5 20.878 13.5 19.5C13.5 19.224 13.724 19 14 19C14.276 19 14.5 19.224 14.5 19.5C14.5 21.43 12.93 23 11 23Z" fill="#A2A2C2"/>
<path d="M19.5 18H2.5C1.673 18 0.5 17.327 0.5 16.5C0.5 16.061 1.191 15.646 1.524 15.36C1.545 15.342 1.568 15.326 1.591 15.312C3.123 13.982 4 12.064 4 10.04V7C4 3.14 7.141 0 11 0C11.08 0 11.177 0.00300005 11.257 0.019C11.528 0.072 11.704 0.335 11.651 0.606C11.599 0.876999 11.335 1.053 11.063 0.999999C7.691 0.999999 5 3.692 5 7V10.04C5 12.383 3.974 14.599 2.185 16.121C2.169 16.134 2.153 16.147 2.135 16.158C2.049 16.25 2 16.372 2 16.5C2 16.776 2.225 17 2.5 17H19.5C19.775 17 20 16.776 20 16.5C20 16.372 19.951 16.249 19.863 16.157C19.846 16.146 19.831 16.134 19.815 16.121C18.026 14.599 17 12.383 17 10.04V8.96999C17 8.69399 17.224 8.46999 17.5 8.46999C17.776 8.46999 18 8.69399 18 8.96999V10.04C18 12.066 18.878 13.984 20.411 15.314C20.434 15.328 20.456 15.343 20.475 15.36C20.809 15.646 21.5 16.061 21.5 16.5C21.5 17.327 20.327 18 19.5 18Z" fill="#A2A2C2"/>
</svg>
